<svg width="1440" height="617" viewBox="0 0 1440 617" fill="none" xmlns="http://www.w3.org/2000/svg">
<g clip-path="url(#clip0_1_356)">
<path d="M1440 344.293V184.453L0.000152189 184.452L6.10352e-05 344.292C193.786 460.673 445.229 530.938 720 530.938C994.772 530.938 1246.21 460.673 1440 344.293Z" fill="white"/>
<path d="M1440 453.643C1237.48 556.396 988.793 616.938 720 616.938C451.208 616.938 202.52 556.396 0 453.642L5.88399e-07 450.277C202.308 553.217 451.032 613.938 720 613.938C988.968 613.938 1237.69 553.217 1440 450.277V453.643Z" fill="white"/>
<path d="M1440 408.471C1240.77 516.614 991.058 580.938 720 580.938C448.942 580.938 199.231 516.614 6.10352e-05 408.47L6.16323e-05 405.056C198.985 513.407 448.741 577.938 720 577.938C991.259 577.938 1241.02 513.407 1440 405.056V408.471Z" fill="white"/>
<path d="M1440 0H0V248H1440V0Z" fill="white"/>
</g>
<defs>
<clipPath id="clip0_1_356">
<rect width="1440" height="617" fill="white"/>
</clipPath>
</defs>
</svg>
