<svg width="132" height="32" viewBox="0 0 132 32" fill="none" xmlns="http://www.w3.org/2000/svg">
<path fill-rule="evenodd" clip-rule="evenodd" d="M126.649 4.6739C127.188 5.2143 127.824 5.4845 128.557 5.4845C129.313 5.4845 129.961 5.2143 130.499 4.6739C131.038 4.13349 131.307 3.49537 131.307 2.7595C131.307 2.02363 131.038 1.37975 130.499 0.827849C129.961 0.275947 129.313 0 128.557 0C127.824 0 127.188 0.275947 126.649 0.827849C126.111 1.37975 125.841 2.02363 125.841 2.7595C125.841 3.49537 126.111 4.13349 126.649 4.6739ZM68.6538 11.7297C68.6538 11.7862 68.608 11.832 68.5515 11.832H64.7692V19.0066C64.7692 19.6045 64.9182 20.0415 65.2161 20.3174C65.514 20.5934 65.9495 20.7486 66.5224 20.7831C67.0466 20.8146 67.6858 20.8125 68.4402 20.7767L68.5461 20.7714C68.6047 20.7684 68.6538 20.815 68.6538 20.8736V24.7101C68.6538 24.7622 68.6146 24.806 68.5628 24.8117L68.4935 24.8192C65.5303 25.1362 63.4351 24.8429 62.2081 23.9393C60.9591 23.0194 60.3346 21.3752 60.3346 19.0066V11.832H57.4461C57.3896 11.832 57.3438 11.7862 57.3438 11.7297V7.65703C57.3438 7.60053 57.3896 7.55473 57.4461 7.55473H60.3346V4.70599C60.3346 4.62496 60.3824 4.55156 60.4565 4.51883L64.6256 2.67769C64.6932 2.64782 64.7692 2.69734 64.7692 2.77127V7.55473H68.5515C68.608 7.55473 68.6538 7.60053 68.6538 7.65703V11.7297ZM76.6954 10.5204C77.1079 9.41658 77.7897 8.58874 78.7408 8.03683C79.6112 7.53176 80.5728 7.25779 81.6255 7.21494C81.6764 7.21287 81.7544 7.21134 81.8174 7.21035C81.8743 7.20946 81.9207 7.25542 81.9207 7.31232V11.9929C81.9207 12.0906 81.8358 12.1658 81.7385 12.157C80.4597 12.0409 79.3115 12.3232 78.2939 13.0039C77.2282 13.7168 76.6954 14.9011 76.6954 16.5568V24.6985C76.6954 24.755 76.6496 24.8008 76.5931 24.8008H72.363C72.3065 24.8008 72.2607 24.755 72.2607 24.6985V7.65622C72.2607 7.59972 72.3065 7.55392 72.363 7.55392H76.5931C76.6496 7.55392 76.6954 7.59972 76.6954 7.65622V10.5204ZM97.6639 7.5542C97.6074 7.5542 97.5616 7.6 97.5616 7.6565V9.58933C96.2323 7.91063 94.3645 7.07129 91.9581 7.07129C89.6663 7.07129 87.7011 7.95087 86.0625 9.71006C84.4238 11.4692 83.6045 13.6251 83.6045 16.1776C83.6045 18.7302 84.4238 20.886 86.0625 22.6452C87.7011 24.4044 89.6663 25.284 91.9581 25.284C94.3645 25.284 96.2323 24.4446 97.5616 22.7659V24.6988C97.5616 24.7553 97.6074 24.8011 97.6639 24.8011H101.894C101.95 24.8011 101.996 24.7553 101.996 24.6988V7.6565C101.996 7.6 101.95 7.5542 101.894 7.5542H97.6639ZM89.3793 19.6964C90.2731 20.5933 91.4075 21.0417 92.7826 21.0417C94.1577 21.0417 95.2979 20.5875 96.2031 19.6792C97.1084 18.7708 97.561 17.6038 97.561 16.1781C97.561 14.7523 97.1084 13.5853 96.2031 12.677C95.2979 11.7686 94.1577 11.3145 92.7826 11.3145C91.4075 11.3145 90.2731 11.7686 89.3793 12.677C88.4855 13.5853 88.0386 14.7523 88.0386 16.1781C88.0386 17.6038 88.4855 18.7766 89.3793 19.6964ZM121.257 9.71006C119.618 7.95087 117.642 7.07129 115.327 7.07129C112.921 7.07129 111.064 7.91063 109.758 9.58933V7.6565C109.758 7.6 109.712 7.5542 109.656 7.5542H105.426C105.369 7.5542 105.323 7.6 105.323 7.6565V31.5975C105.323 31.654 105.369 31.6998 105.426 31.6998H109.656C109.712 31.6998 109.758 31.654 109.758 31.5975V22.7659C111.064 24.4446 112.921 25.284 115.327 25.284C117.642 25.284 119.618 24.4044 121.257 22.6452C122.896 20.886 123.715 18.7302 123.715 16.1776C123.715 13.6251 122.896 11.4692 121.257 9.71006ZM111.099 19.6964C111.992 20.5933 113.127 21.0417 114.502 21.0417C115.877 21.0417 117.017 20.5875 117.922 19.6792C118.828 18.7708 119.28 17.6038 119.28 16.1781C119.28 14.7523 118.828 13.5853 117.922 12.677C117.017 11.7686 115.877 11.3145 114.502 11.3145C113.127 11.3145 111.992 11.7686 111.099 12.677C110.205 13.5853 109.758 14.7523 109.758 16.1781C109.758 17.6038 110.205 18.7766 111.099 19.6964ZM126.459 24.8015C126.403 24.8015 126.357 24.7557 126.357 24.6992V7.65699C126.357 7.60049 126.403 7.55469 126.459 7.55469H130.689C130.746 7.55469 130.792 7.60049 130.792 7.65699V24.6992C130.792 24.7557 130.746 24.8015 130.689 24.8015H126.459ZM47.2991 13.5734C46.6918 13.2859 46.3881 12.9122 46.3881 12.4523C46.3881 12.0154 46.5772 11.6705 46.9553 11.4175C47.3335 11.1645 47.809 11.0381 48.382 11.0381C49.4806 11.0381 50.3106 11.4678 50.8718 12.3272C50.911 12.3872 50.9871 12.4115 51.0526 12.3824L54.7941 10.7215C54.8498 10.6968 54.8717 10.6292 54.8407 10.5767C54.7995 10.507 54.7452 10.416 54.7091 10.3591C54.0677 9.34756 53.2382 8.59399 52.1978 8.01987C51.0519 7.38748 49.78 7.07129 48.382 7.07129C46.5256 7.07129 44.9729 7.55995 43.7239 8.53727C42.4749 9.5146 41.8503 10.8541 41.8503 12.5558C41.8503 13.6826 42.154 14.6197 42.7613 15.367C43.3687 16.1144 44.1078 16.6605 44.9787 17.0055C45.8495 17.3504 46.7204 17.6379 47.5913 17.8678C48.4622 18.0978 49.2013 18.3565 49.8086 18.6439C50.416 18.9314 50.7196 19.3051 50.7196 19.765C50.7196 20.7538 49.9289 21.2482 48.3476 21.2482C46.8423 21.2482 45.7992 20.69 45.2183 19.5737C45.1684 19.4778 45.0542 19.4339 44.9554 19.4778L41.2244 21.1366C41.1718 21.1599 41.1488 21.2221 41.1738 21.2739C41.1889 21.3052 41.2048 21.3379 41.2165 21.3613C42.5203 23.9764 44.8974 25.284 48.3476 25.284C50.3186 25.284 51.9629 24.8068 53.2807 23.8525C54.5985 22.8982 55.2574 21.5357 55.2574 19.765C55.2574 18.5922 54.9537 17.6149 54.3464 16.833C53.7391 16.0512 53 15.4935 52.1291 15.1601C51.2582 14.8266 50.3873 14.5507 49.5164 14.3322C48.6455 14.1138 47.9064 13.8608 47.2991 13.5734Z" fill="#212067"/>
<rect y="0.299805" width="31.6997" height="31.6997" rx="5.65311" fill="#4945FF"/>
<path fill-rule="evenodd" clip-rule="evenodd" d="M21.9792 9.86237H11.1619V15.2657H16.576C16.6632 15.2657 16.734 15.3364 16.734 15.4237V20.8374H22.1372V10.0204C22.1372 9.93311 22.0665 9.86237 21.9792 9.86237Z" fill="white"/>
<path opacity="0.42" fill-rule="evenodd" clip-rule="evenodd" d="M11.1629 9.86224V15.2654H5.95038C5.87999 15.2654 5.84474 15.1803 5.89452 15.1305L11.1629 9.86224Z" fill="white"/>
<path opacity="0.42" fill-rule="evenodd" clip-rule="evenodd" d="M16.8694 26.1055C16.8197 26.1553 16.7346 26.1201 16.7346 26.0497V20.8373H22.1378L16.8694 26.1055Z" fill="white"/>
<path opacity="0.42" d="M11.1642 15.2656H16.6573C16.7009 15.2656 16.7363 15.3009 16.7363 15.3446V20.8375H11.3222C11.2349 20.8375 11.1642 20.7668 11.1642 20.6795V15.2656Z" fill="white"/>
</svg>
